<svg id="visual" viewBox="0 0 960 540" width="960" height="540" xmlns="http://www.w3.org/2000/svg" xmlns:xlink="http://www.w3.org/1999/xlink" version="1.1"><rect x="0" y="0" width="960" height="540" fill="#00aaff"></rect><path d="M74 0L72.8 18C71.7 36 69.3 72 68.8 108C68.3 144 69.7 180 83 216C96.3 252 121.7 288 120.3 324C119 360 91 396 89.7 432C88.3 468 113.7 504 126.3 522L139 540L0 540L0 522C0 504 0 468 0 432C0 396 0 360 0 324C0 288 0 252 0 216C0 180 0 144 0 108C0 72 0 36 0 18L0 0Z" fill="#3D5AFE" stroke-linecap="round" stroke-linejoin="miter"></path></svg>